# xmcd
#
# Track frame offsets:
#	183
#	20335
#	47568
#	67863
#	87348
#	105838
#	125518
#	148560
#	169688
#	192115
#	206260
#	223755
#	242695
#	262373
#
# Disc length: 3691 seconds
#
# Revision: 0
# Processed by: cddbd v1.5.2PL0 Copyright (c) Steve Scherf et al.
# Submitted via: EasyCDDAExtractor 16.0.1.1
#
DISCID=bf0e690e
DTITLE=Otis Spann - This Is The Blues
DYEAR=1960
DGENRE=Blues
TTITLE0=Country Boy
TTITLE1=Beat-Up Team
TTITLE2=My Daily Wish
TTITLE3=Great Northern Stomp
TTITLE4=I Got Rambling On My Mind
TTITLE5=Worried Life Blues
TTITLE6=The Hard Way
TTITLE7=Half Ain't Been Told
TTITLE8=Monkey Woman
TTITLE9=This Is The Blues
TTITLE10=Evil Ways
TTITLE11=Come Day Come Go
TTITLE12=Bad Condition
TTITLE13=My Home Is In The Delta
EXTD=
EXTT0=
EXTT1=
EXTT2=
EXTT3=
EXTT4=
EXTT5=
EXTT6=
EXTT7=
EXTT8=
EXTT9=
EXTT10=
EXTT11=
EXTT12=
EXTT13=
PLAYORDER=
